<?xml version="1.0" encoding="utf-8"?>
<!-- Generator: Adobe Illustrator 17.0.0, SVG Export Plug-In . SVG Version: 6.00 Build 0)  -->
<!DOCTYPE svg PUBLIC "-//W3C//DTD SVG 1.1//EN" "http://www.w3.org/Graphics/SVG/1.1/DTD/svg11.dtd">
<svg version="1.1" id="Layer_1" xmlns="http://www.w3.org/2000/svg" xmlns:xlink="http://www.w3.org/1999/xlink" x="0px" y="0px"
	 width="70px" height="70px" viewBox="0 0 70 70" enable-background="new 0 0 70 70" xml:space="preserve">
<circle fill="#6DC0E5" cx="35" cy="35" r="35"/>
<path fill="#FFFFFF" d="M29.362,16.763c0,0-1.279,2.291-1.359,3.996c0,0-1.705,0.959-2.424,1.172h-0.932
	c0,0-6.047-2.531-7.325-3.143v14.491c0,0,5.168,0.4,7.778,3.33c0,0,3.037-0.266,4.688,4.022s5.913,2.264,5.913,2.264
	s6.233-1.492,8.577,8.737l1.678,0.799l6.846-3.303v-29.94l-4.315,2.158c0,0-0.24-2.397-0.719-3.436l8.348-4.024v37.294l-9.707,4.938
	L35,51.231l-9.794,4.885l-11.323-4.965V13.884l11.243,4.85L29.362,16.763z"/>
<path fill="#FFFFFF" d="M38.455,39.593h-1.138c0,0,0.057-2.818-0.901-4.941c-0.959-2.123-4.72-8.149-5.273-10.957
	c-0.673-3.419-0.149-9.525,7.088-9.811h0.141c6.581,0.132,7.75,6.336,7.088,9.811c-0.826,4.339-4.314,8.834-5.273,10.957
	c-0.959,2.123-0.901,4.941-0.901,4.941h-1.138"/>
<circle fill="#6DC0E5" cx="38.274" cy="21.495" r="3.346"/>
</svg>
